<svg xmlns="http://www.w3.org/2000/svg" viewBox="0 0 512 512">
  <defs>
    <linearGradient id="grad" x1="0%" y1="0%" x2="100%" y2="100%">
      <stop offset="0%" style="stop-color:#d4af37;stop-opacity:1" />
      <stop offset="100%" style="stop-color:#bf953f;stop-opacity:1" />
    </linearGradient>
  </defs>
  <rect width="512" height="512" rx="100" fill="#0f172a"/>
  <!-- Crescent -->
  <path d="M360 256c0 88.37-71.63 160-160 160-88.37 0-160-71.63-160-160S111.63 96 200 96c21.25 0 41.5 4.14 60 11.75-22.5 13.5-37.75 38.5-37.75 67.25 0 44.18 35.82 80 80 80 28.75 0 53.75-15.25 67.25-37.75 7.61 18.5 11.75 38.75 11.75 60-1.25-10.75-7.5-20.25-16.75-25.5-9.25-5.25-20.5-5.5-29.25.75-18.5 13.25-44.5 9-57.75-9.5s-9-44.5 9.5-57.75c9.25-6.6 21.25-6.6 30.25 0 9.25 6.6 22 4.1 28.6-5.1 6.6-9.2 4.1-22-5.1-28.6-22.5-16.1-53-16.1-75.5 0-30.8 22-38.3 64.1-16.3 94.9 22 30.8 64.1 38.3 94.9 16.3 10.7-7.7 13-22.8 5.4-33.8z" fill="url(#grad)"/>
  <!-- Feather/Pen Detail (Abstract) -->
  <path d="M380 90l-80 80c-10 10-10 26 0 36s26 10 36 0l80-80c10-10 10-26 0-36s-26-10-36 0z" fill="url(#grad)" opacity="0.8"/>
</svg>
